<?xml version="1.0" standalone="no"?>
<!DOCTYPE svg PUBLIC "-//W3C//DTD SVG 20010904//EN"
 "http://www.w3.org/TR/2001/REC-SVG-20010904/DTD/svg10.dtd">
<svg version="1.0" xmlns="http://www.w3.org/2000/svg"
 width="1125.000000pt" height="1049.000000pt" viewBox="0 0 1125.000000 1049.000000"
 preserveAspectRatio="xMidYMid meet">

<g transform="translate(0.000000,1049.000000) scale(0.100000,-0.100000)"
fill="#000000" stroke="none">
<path d="M5197 8378 c-4 -83 -7 -852 -7 -1710 l0 -1558 -34 0 c-33 0 -34 1
-42 53 -5 28 -9 612 -10 1297 0 685 -1 1260 -2 1278 l-2 32 -125 0 -125 0 0
-213 c0 -152 -3 -216 -12 -225 -7 -7 -42 -12 -85 -12 l-73 0 -1 -237 c-1 -131
-5 -623 -8 -1093 l-6 -855 -25 0 -25 0 -3 631 -2 632 -183 7 c-100 4 -216 5
-257 3 l-75 -3 -5 -290 -5 -290 -125 -5 -125 -5 -5 -425 -5 -425 -42 -3 -43
-3 0 284 c0 156 -3 385 -7 508 l-6 225 -192 112 c-106 62 -198 112 -204 112
-8 0 -11 -113 -11 -405 l0 -405 -22 -5 c-13 -2 -36 -6 -53 -7 l-30 -3 -5 -219
c-4 -163 -8 -220 -17 -224 -10 -3 -13 62 -13 302 l0 305 -107 64 c-60 35 -138
80 -175 101 l-68 38 -2 -259 -3 -258 -32 -3 -33 -3 0 -130 c0 -72 -5 -139 -10
-150 -8 -13 -21 -19 -45 -19 l-35 0 0 49 c0 58 -6 61 -116 61 l-72 0 -4 -47
c-3 -27 -3 -54 0 -60 3 -10 647 -13 3173 -13 l3169 0 0 94 c0 110 5 106 -127
106 l-83 0 0 -49 c0 -32 -5 -53 -16 -62 -27 -22 -34 8 -34 158 0 132 -2 143
-20 153 -18 10 -20 23 -22 220 l-3 209 -121 -89 -121 -89 -6 -83 c-4 -46 -7
-161 -7 -255 0 -109 -4 -173 -10 -173 -6 0 -10 26 -10 59 0 51 -3 61 -20 66
-19 6 -20 15 -20 141 0 119 -2 135 -17 140 -49 15 -48 8 -53 253 l-5 232 -77
-67 c-65 -57 -78 -73 -78 -99 0 -54 -10 -74 -39 -77 -25 -3 -26 -7 -31 -68
l-5 -65 -52 -3 -53 -3 0 559 c0 431 -3 562 -12 574 -7 9 -48 39 -91 66 -42 28
-141 96 -220 150 -128 90 -196 132 -212 132 -3 0 -5 -371 -5 -824 0 -744 -2
-824 -16 -830 -9 -3 -20 -4 -25 0 -5 3 -9 253 -9 600 l0 594 -95 0 -95 0 0
-144 0 -145 -47 -3 -48 -3 -3 -237 -2 -237 -93 -3 -92 -3 -5 -310 c-4 -267 -7
-310 -20 -310 -13 0 -16 42 -21 295 -4 162 -7 516 -8 785 0 270 -1 500 -1 513
0 20 -5 22 -49 22 l-48 0 -6 68 c-4 37 -4 198 0 357 3 160 3 339 -2 399 l-7
110 -72 -75 c-39 -41 -115 -121 -169 -179 l-97 -105 0 -282 c0 -288 -5 -336
-37 -332 -10 1 -44 1 -75 0 l-58 -1 0 -53 c0 -30 -3 -109 -7 -175 l-6 -122
-79 0 -78 0 0 -334 c0 -300 -2 -334 -16 -340 -9 -4 -20 -4 -23 0 -3 3 -7 529
-9 1170 l-2 1163 -33 26 c-105 82 -545 405 -583 428 -8 4 -13 -39 -17 -145z"/>
<path d="M6768 4418 c-17 -29 -32 -61 -53 -118 -9 -25 -23 -58 -30 -75 -8 -16
-25 -59 -38 -95 -26 -69 -80 -204 -104 -257 -7 -18 -20 -51 -28 -73 -8 -22
-22 -57 -31 -78 -29 -67 -33 -76 -53 -127 -101 -264 -130 -325 -166 -353 -32
-26 -85 -38 -94 -23 -4 6 -2 46 5 89 17 102 17 145 2 140 -7 -3 -18 -19 -23
-36 -23 -69 -61 -101 -154 -131 -36 -12 -473 -16 -484 -5 -8 8 3 30 58 114 35
55 93 148 220 350 12 19 40 64 62 100 72 117 126 204 148 240 90 142 185 304
185 316 0 12 -65 14 -413 14 -290 0 -416 3 -424 11 -20 20 -30 1 -42 -78 -7
-43 -17 -100 -22 -127 -14 -75 5 -82 35 -14 24 55 51 80 111 107 21 10 97 15
258 19 222 4 227 4 227 -16 0 -11 -7 -25 -15 -32 -8 -7 -15 -16 -15 -20 0 -5
-29 -55 -65 -112 -35 -56 -85 -137 -110 -178 -84 -137 -200 -322 -334 -538
-74 -118 -134 -221 -135 -230 -1 -16 49 -17 647 -19 497 -1 647 1 644 10 -2 7
-20 13 -40 15 -53 5 -73 37 -56 89 29 88 104 289 112 301 7 9 58 12 193 12
l184 0 18 -37 c10 -21 28 -63 39 -93 12 -30 37 -96 57 -146 20 -51 36 -94 36
-97 0 -3 -7 -13 -16 -21 -8 -9 -12 -20 -9 -26 8 -13 405 -14 405 -1 0 5 -25
15 -55 21 -83 17 -114 53 -189 220 -13 30 -32 75 -41 100 -10 25 -23 59 -31
76 -8 17 -43 107 -80 200 -36 93 -72 183 -79 199 -8 17 -34 84 -60 150 -53
138 -104 254 -118 273 -14 17 -23 15 -39 -10z m14 -388 c10 -36 23 -74 28 -85
24 -52 80 -240 76 -252 -4 -10 -38 -13 -141 -13 -162 0 -162 -1 -121 110 16
41 38 105 51 141 12 36 29 81 38 100 8 19 18 42 21 52 11 33 28 13 48 -53z"/>
<path d="M9076 4408 c-17 -36 -205 -507 -242 -603 -20 -54 -151 -380 -172
-430 -48 -114 -79 -147 -152 -162 -24 -4 -45 -13 -47 -18 -2 -7 67 -10 197
-10 153 0 200 3 200 13 0 7 -13 12 -31 12 -75 0 -86 42 -45 165 31 92 77 207
89 223 7 9 58 12 192 12 134 0 185 -3 192 -12 5 -7 26 -58 47 -113 21 -55 49
-128 62 -163 27 -69 29 -93 13 -109 -20 -20 7 -24 194 -30 134 -4 186 -3 191
6 4 6 1 13 -6 15 -7 2 -33 9 -57 16 -55 15 -92 53 -130 134 -37 76 -267 644
-347 855 -27 69 -66 161 -87 201 -19 38 -44 37 -61 -2z m4 -310 c0 -3 17 -51
100 -282 35 -96 40 -120 29 -127 -8 -5 -76 -9 -152 -9 -108 0 -139 3 -143 14
-4 11 28 109 68 206 5 14 16 44 25 68 26 77 52 132 63 132 5 0 10 -1 10 -2z"/>
<path d="M1840 4420 c-14 -5 -45 -14 -70 -21 -178 -49 -339 -188 -396 -340 -9
-24 -19 -53 -24 -64 -14 -37 -30 -141 -30 -200 0 -118 42 -266 100 -350 69
-101 201 -196 320 -231 30 -9 66 -20 80 -24 152 -50 479 -31 617 36 l38 19 3
231 c2 231 2 232 27 258 20 22 33 27 63 24 37 -3 37 -3 43 -58 27 -227 176
-417 386 -492 135 -48 285 -62 390 -37 151 37 240 80 326 159 105 96 167 214
203 387 39 185 -31 420 -163 544 -44 42 -146 109 -166 109 -7 0 -17 4 -23 9
-26 24 -146 45 -279 49 -146 3 -160 1 -290 -46 -218 -78 -358 -266 -385 -515
-4 -37 -10 -70 -13 -73 -3 -3 -108 -7 -234 -8 -144 0 -228 -5 -228 -11 0 -5
20 -11 45 -13 25 -2 56 -12 70 -22 l25 -19 3 -215 c4 -251 4 -249 -93 -261
-110 -14 -241 8 -335 56 -96 49 -206 160 -241 244 -6 17 -18 44 -25 60 -36 83
-50 229 -35 354 21 170 97 283 236 351 66 32 77 35 191 38 139 5 204 -6 292
-48 95 -45 149 -105 161 -179 4 -19 11 -36 18 -38 13 -5 27 147 21 242 l-3 60
-50 7 c-27 3 -77 11 -110 18 -72 15 -430 22 -465 10z m1525 -87 c108 -38 206
-127 263 -239 52 -103 66 -171 67 -324 0 -192 -29 -305 -106 -401 -128 -162
-382 -172 -567 -21 -53 43 -124 148 -150 222 -44 126 -47 144 -46 285 0 119 4
151 24 215 39 124 97 198 193 247 85 43 225 50 322 16z"/>
<path d="M4036 4414 c-3 -9 -6 -172 -6 -362 -1 -191 -5 -444 -9 -564 -10 -249
-12 -257 -88 -273 -98 -22 -54 -30 159 -30 215 0 263 9 157 30 -79 15 -91 37
-100 187 -14 222 -17 668 -4 668 6 0 39 -33 74 -72 113 -130 814 -828 832
-828 9 0 20 7 23 16 3 9 7 129 7 267 1 139 4 387 8 552 7 348 8 352 84 374 26
8 47 18 47 22 0 5 -92 8 -205 8 -113 0 -205 -3 -205 -8 0 -5 27 -14 60 -20 98
-20 94 2 104 -469 4 -222 6 -406 2 -409 -3 -3 -49 41 -103 98 -54 56 -204 211
-333 343 -275 282 -408 420 -440 459 -26 30 -55 35 -64 11z"/>
<path d="M7790 4420 c-14 -5 -56 -18 -95 -30 -102 -32 -183 -81 -253 -152 -81
-81 -146 -204 -161 -305 -44 -290 45 -519 252 -646 172 -107 424 -151 649
-115 78 12 215 53 235 70 10 8 13 67 13 238 0 213 1 229 20 253 14 17 32 27
55 29 20 2 35 8 35 13 0 6 -83 10 -230 10 -146 0 -230 -4 -230 -10 0 -5 22
-12 49 -15 85 -9 87 -15 96 -214 12 -295 8 -301 -170 -301 -117 1 -166 12
-266 59 -98 47 -207 169 -252 283 -61 154 -60 398 2 539 32 70 111 146 194
185 68 32 79 34 199 37 96 3 140 0 185 -13 145 -41 228 -108 257 -209 9 -31
21 -56 26 -56 6 0 11 52 12 125 1 69 2 140 2 158 1 32 0 32 -54 38 -30 4 -82
12 -115 19 -71 15 -419 22 -455 10z"/>
<path d="M2796 2930 c-3 -8 -7 -102 -8 -208 l-3 -192 27 0 c29 0 45 14 28 25
-11 7 -14 255 -3 255 4 0 70 -64 146 -142 96 -98 141 -138 148 -131 7 7 13 89
16 202 l5 191 -24 0 -23 0 3 -140 c3 -97 1 -140 -7 -140 -6 0 -76 66 -155 148
-101 102 -146 142 -150 132z"/>
<path d="M5293 2932 l-93 -3 0 -182 c0 -124 -4 -187 -11 -194 -18 -18 22 -24
126 -21 l90 3 3 30 c3 28 2 28 -10 12 -15 -20 -66 -25 -107 -12 -24 7 -34 48
-29 115 l3 45 53 3 c31 2 52 -1 52 -7 0 -6 5 -11 11 -11 6 0 9 12 7 27 -3 26
-5 27 -51 24 -64 -4 -77 9 -77 74 0 70 14 82 82 68 41 -8 51 -7 55 4 9 24 -8
28 -104 25z"/>
<path d="M6814 2930 c-31 -12 -64 -59 -64 -89 0 -37 43 -99 100 -143 56 -43
71 -84 46 -123 -13 -20 -25 -25 -60 -25 -44 0 -66 15 -79 53 -9 24 -27 12 -27
-16 0 -30 11 -44 43 -56 39 -15 70 -14 117 5 45 18 70 55 70 104 0 46 -22 81
-84 130 -68 55 -85 89 -62 125 21 32 74 34 101 5 25 -28 37 -25 33 8 -3 25 -6
27 -58 29 -30 1 -65 -2 -76 -7z"/>
<path d="M8090 2917 c0 -27 0 -27 100 -12 50 7 52 0 47 -171 -2 -88 -8 -169
-12 -182 -7 -22 -6 -23 34 -20 l42 3 2 185 2 184 50 -3 c28 -1 54 -7 60 -12
16 -16 25 -10 25 16 l0 25 -144 0 c-79 0 -158 3 -175 6 -28 6 -31 4 -31 -19z"/>
<path d="M1929 2926 c-2 -2 -2 -71 1 -153 6 -165 18 -204 76 -233 45 -23 146
-20 181 6 58 43 67 73 69 236 l3 148 -25 0 -24 0 0 -150 c0 -165 -8 -197 -55
-218 -45 -21 -89 -15 -117 16 -43 47 -50 80 -47 222 l4 130 -31 0 c-17 0 -33
-2 -35 -4z"/>
<path d="M3718 2898 c9 -44 9 -272 -1 -326 l-7 -43 40 3 41 3 2 198 2 197 -42
0 -42 0 7 -32z"/>
<path d="M4320 2927 c0 -2 11 -27 25 -56 14 -29 40 -87 56 -129 17 -43 37 -90
44 -107 8 -16 21 -47 29 -67 8 -21 19 -38 23 -38 4 0 19 24 32 53 13 28 41 93
63 142 22 50 51 113 64 141 13 28 24 54 24 57 0 4 -13 7 -30 7 -25 0 -30 -4
-30 -26 0 -14 -17 -66 -39 -117 -21 -51 -42 -102 -46 -114 -3 -13 -12 -23 -19
-23 -13 0 -106 227 -106 260 0 17 -7 20 -45 20 -25 0 -45 -1 -45 -3z"/>
<path d="M5955 2730 l0 -200 44 0 c37 0 42 2 35 18 -4 9 -10 43 -12 75 -3 45
0 63 13 77 15 17 15 19 -1 28 -14 8 -16 23 -12 106 l4 96 -36 0 -35 0 0 -200z"/>
<path d="M6077 2923 c-3 -5 10 -21 29 -36 30 -25 34 -33 34 -74 0 -39 -5 -50
-34 -76 l-33 -30 63 -82 c63 -82 82 -95 138 -95 l30 0 -43 36 c-59 51 -126
144 -115 159 37 50 46 69 51 103 4 31 0 44 -18 66 -24 27 -91 47 -102 29z"/>
<path d="M7505 2730 l0 -200 43 0 42 0 -7 43 c-5 23 -8 113 -7 200 l0 157 -35
0 -36 0 0 -200z"/>
<path d="M8910 2918 c0 -6 7 -20 16 -29 9 -10 39 -56 66 -101 l49 -83 -3 -87
-4 -88 44 0 c38 0 43 2 36 18 -4 9 -10 45 -12 78 -4 68 14 113 89 227 22 32
39 63 39 68 0 17 -50 10 -56 -8 -13 -44 -78 -163 -88 -160 -14 5 -84 120 -92
152 -5 21 -12 25 -45 25 -23 0 -39 -5 -39 -12z"/>
<path d="M2400 2050 c0 -182 1 -190 20 -190 17 0 19 8 22 88 l3 87 51 3 51 3
35 -88 c27 -69 39 -89 56 -91 12 -2 22 -1 22 1 0 2 -15 42 -34 88 l-34 84 23
14 c50 31 69 97 39 140 -26 36 -74 51 -169 51 l-85 0 0 -190z m206 135 c8 -10
14 -33 14 -51 0 -48 -29 -64 -112 -64 l-68 0 0 63 c0 35 3 67 8 71 4 4 38 6
76 4 53 -3 71 -8 82 -23z"/>
<path d="M2867 2234 c-4 -4 -7 -90 -7 -191 l0 -183 120 0 c73 0 120 4 120 10
0 10 -10 11 -120 14 l-65 1 -3 78 -3 77 71 0 c56 0 70 3 70 15 0 12 -14 15
-70 15 l-70 0 0 70 0 69 93 3 c53 2 92 7 92 13 0 11 -217 20 -228 9z"/>
<path d="M3396 2232 c-6 -10 -85 -222 -109 -292 -8 -25 -18 -53 -22 -62 -5
-14 -2 -18 13 -18 17 0 25 12 38 55 l18 55 82 0 83 0 17 -55 c15 -45 22 -55
40 -55 22 0 22 3 -30 153 -74 212 -81 227 -105 227 -11 0 -22 -4 -25 -8z m59
-137 c14 -37 25 -72 25 -76 0 -5 -29 -9 -65 -9 -36 0 -65 2 -65 4 0 2 11 35
25 72 14 38 28 75 31 83 8 23 22 1 49 -74z"/>
<path d="M3767 2234 c-4 -4 -7 -90 -7 -191 l0 -183 115 0 c70 0 115 4 115 10
0 6 -6 10 -12 11 -7 0 -47 1 -88 2 l-75 2 -5 175 c-4 147 -7 175 -20 178 -9 1
-19 0 -23 -4z"/>
<path d="M4397 2233 c-4 -3 -7 -89 -7 -190 l0 -183 120 0 c73 0 120 4 120 10
0 11 2 11 -103 11 -91 0 -95 5 -93 94 l1 60 68 5 c88 7 91 24 5 28 -63 3 -68
5 -74 28 -3 13 -3 44 0 69 l7 45 90 0 c72 0 89 3 89 15 0 12 -19 15 -108 15
-60 0 -112 -3 -115 -7z"/>
<path d="M4875 2226 c-44 -19 -67 -50 -68 -90 -1 -48 29 -78 106 -106 67 -24
107 -54 107 -79 -1 -30 -28 -53 -69 -58 -51 -7 -85 2 -110 28 -21 22 -55 20
-45 -3 14 -35 59 -53 132 -53 70 0 75 1 103 33 58 65 24 135 -85 170 -74 25
-96 44 -96 82 0 25 6 33 34 46 38 19 96 13 116 -11 16 -20 40 -19 40 0 0 19
-74 55 -110 54 -14 0 -38 -6 -55 -13z"/>
<path d="M5220 2225 c0 -12 13 -15 60 -15 l60 0 0 -175 c0 -168 1 -175 20
-175 19 0 20 8 22 173 l3 172 58 3 c40 2 57 7 54 15 -2 8 -45 13 -140 15 -117
2 -137 0 -137 -13z"/>
<path d="M5786 2228 c-3 -7 -33 -91 -67 -186 -34 -95 -59 -175 -56 -178 15
-15 37 9 50 53 l14 48 84 0 84 0 19 -52 c13 -38 24 -53 37 -53 11 0 19 6 18
13 0 6 -28 91 -63 187 -59 164 -64 175 -89 178 -16 2 -29 -2 -31 -10z m64
-128 c12 -36 25 -71 27 -77 4 -10 -12 -13 -61 -13 -73 0 -77 4 -52 62 40 96
48 110 55 102 4 -5 18 -38 31 -74z"/>
<path d="M6137 2234 c-17 -18 -3 -24 53 -24 l60 0 0 -175 c0 -168 1 -175 20
-175 19 0 20 8 22 173 l3 172 55 5 c30 3 54 10 53 15 -3 11 -255 20 -266 9z"/>
<path d="M6590 2050 l0 -190 120 0 c70 0 120 4 120 10 0 14 -60 22 -122 17
-30 -3 -60 -2 -67 2 -8 5 -11 30 -9 77 l3 69 68 5 c37 3 67 10 67 15 0 6 -30
12 -67 15 l-68 5 0 65 0 65 93 3 c73 2 92 6 92 17 0 12 -21 15 -115 15 l-115
0 0 -190z"/>
<path d="M7315 2226 c-67 -30 -95 -84 -95 -184 0 -81 27 -135 80 -163 67 -36
166 -15 195 42 22 42 -2 49 -34 10 -30 -37 -87 -50 -134 -32 -56 22 -86 155
-53 235 17 40 60 76 93 76 36 0 78 -25 91 -54 13 -28 42 -35 42 -10 0 30 -22
56 -63 75 -49 22 -81 23 -122 5z"/>
<path d="M7700 2050 l0 -190 115 0 c70 0 115 4 115 10 0 6 -33 10 -79 10 -44
0 -86 3 -95 6 -14 5 -16 31 -16 180 0 167 -1 174 -20 174 -19 0 -20 -7 -20
-190z"/>
<path d="M8104 2226 c-11 -29 2 -280 15 -308 26 -51 130 -76 191 -45 49 24 61
67 58 222 -3 117 -6 140 -18 140 -12 0 -16 -26 -20 -153 -5 -147 -6 -155 -29
-173 -31 -25 -91 -25 -124 2 -26 20 -27 22 -29 172 -3 135 -5 152 -21 155 -9
2 -20 -4 -23 -12z"/>
<path d="M8580 2050 l0 -190 85 0 c131 0 175 26 175 104 0 34 -14 56 -48 75
-15 9 -14 12 11 38 28 31 36 78 17 112 -16 30 -83 51 -165 51 l-75 0 0 -190z
m191 131 c25 -30 24 -66 -1 -91 -16 -16 -33 -20 -85 -20 l-65 0 0 71 0 71 66
-4 c55 -3 70 -8 85 -27z m-12 -154 c32 -16 47 -61 32 -93 -13 -30 -48 -44
-115 -47 l-51 -2 -3 78 -3 77 58 0 c32 0 69 -6 82 -13z"/>
</g>
</svg>
